<?xml version="1.0" encoding="utf-8"?>
<!-- Generator: Adobe Illustrator 19.0.0, SVG Export Plug-In . SVG Version: 6.00 Build 0)  -->
<svg version="1.1" id="Capa_1" xmlns="http://www.w3.org/2000/svg" xmlns:xlink="http://www.w3.org/1999/xlink" x="0px" y="0px"
	 viewBox="-13 70 172 12" style="enable-background:new -13 70 172 12;" xml:space="preserve">
<metadata><?xpacket begin="﻿" id="W5M0MpCehiHzreSzNTczkc9d"?>
<x:xmpmeta xmlns:x="adobe:ns:meta/" x:xmptk="Adobe XMP Core 5.6-c067 79.157747, 2015/03/30-23:40:42        ">
   <rdf:RDF xmlns:rdf="http://www.w3.org/1999/02/22-rdf-syntax-ns#">
      <rdf:Description rdf:about=""/>
   </rdf:RDF>
</x:xmpmeta>
                                                                                                    
                                                                                                    
                                                                                                    
                                                                                                    
                                                                                                    
                                                                                                    
                                                                                                    
                                                                                                    
                                                                                                    
                                                                                                    
                                                                                                    
                                                                                                    
                                                                                                    
                                                                                                    
                                                                                                    
                                                                                                    
                                                                                                    
                                                                                                    
                                                                                                    
                                                                                                    
                           
<?xpacket end="w"?></metadata>
<style type="text/css">
	.st0{enable-background:new    ;}
</style>
<g class="st0">
	<path d="M-8.9,71h1.5l3.9,10h-1.6l-1-2.8h-4.1l-1,2.8h-1.5L-8.9,71z M-6.6,77l-1.6-4.4L-9.9,77H-6.6z"/>
	<path d="M3.8,71h1.5l5.5,7.8V71h1.4v10h-1.4l-5.5-7.8V81H3.8V71z"/>
	<path d="M20.4,71h1.4v10h-1.4V71z"/>
	<path d="M32.9,72.3h-3.6V71h8.6v1.3h-3.6V81h-1.4V72.3z"/>
	<path d="M46.6,71h1.5L52,81h-1.6l-1-2.8h-4.1l-1,2.8h-1.5L46.6,71z M48.9,77l-1.6-4.4L45.6,77H48.9z"/>
</g>
<g>
</g>
<g class="st0">
	<path d="M71.8,72.3h-3.6V71h8.6v1.3h-3.6V81h-1.4V72.3z"/>
	<path d="M84.3,71h1.4v4.2h5.5V71h1.4v10h-1.4v-4.5h-5.5V81h-1.4V71z"/>
	<path d="M105.6,81.3c-0.7,0-1.4-0.1-2-0.4c-0.6-0.3-1.2-0.7-1.6-1.1c-0.5-0.5-0.8-1-1.1-1.7c-0.3-0.6-0.4-1.3-0.4-2.1
		c0-0.7,0.1-1.4,0.4-2c0.3-0.6,0.6-1.2,1.1-1.7c0.5-0.5,1-0.8,1.6-1.1c0.6-0.3,1.3-0.4,2-0.4c0.7,0,1.4,0.1,2,0.4
		c0.6,0.3,1.2,0.7,1.6,1.1c0.5,0.5,0.8,1,1.1,1.7c0.3,0.6,0.4,1.3,0.4,2c0,0.7-0.1,1.4-0.4,2.1c-0.3,0.6-0.6,1.2-1.1,1.7
		c-0.5,0.5-1,0.8-1.6,1.1C107,81.1,106.4,81.3,105.6,81.3z M105.6,79.9c0.5,0,1-0.1,1.5-0.3c0.4-0.2,0.8-0.5,1.1-0.9
		c0.3-0.4,0.6-0.8,0.7-1.3c0.2-0.5,0.3-1,0.3-1.5c0-0.5-0.1-1-0.3-1.5c-0.2-0.5-0.4-0.9-0.7-1.3c-0.3-0.4-0.7-0.6-1.1-0.8
		c-0.4-0.2-0.9-0.3-1.5-0.3s-1,0.1-1.5,0.3c-0.4,0.2-0.8,0.5-1.1,0.8c-0.3,0.4-0.6,0.8-0.7,1.3c-0.2,0.5-0.3,1-0.3,1.5
		c0,0.5,0.1,1,0.3,1.5c0.2,0.5,0.4,0.9,0.7,1.3c0.3,0.4,0.7,0.6,1.1,0.9C104.6,79.8,105.1,79.9,105.6,79.9z"/>
	<path d="M119,71h1.4l3,5.2l3-5.2h1.3l0.5,10h-1.4l-0.3-7.7l-2.8,4.7H123l-2.8-4.7l-0.3,7.6h-1.4L119,71z"/>
	<path d="M139.4,71h1.5l3.9,10h-1.6l-1-2.8H138l-1,2.8h-1.5L139.4,71z M141.7,77l-1.6-4.4l-1.6,4.4H141.7z"/>
</g>
<g>
</g>
<g class="st0">
	<path d="M152.5,78.6c0.1,0.2,0.3,0.3,0.5,0.5s0.4,0.3,0.6,0.4s0.5,0.2,0.7,0.3c0.3,0.1,0.6,0.1,0.9,0.1c0.7,0,1.2-0.1,1.5-0.4
		c0.4-0.3,0.6-0.7,0.6-1.2c0-0.5-0.2-1-0.6-1.2c-0.4-0.3-1-0.5-1.8-0.7c-0.4-0.1-0.8-0.2-1.2-0.4c-0.4-0.2-0.7-0.4-0.9-0.6
		c-0.3-0.2-0.5-0.5-0.6-0.8c-0.1-0.3-0.2-0.7-0.2-1.1c0-0.4,0.1-0.7,0.2-1.1c0.1-0.3,0.3-0.6,0.6-0.9c0.3-0.2,0.6-0.5,1-0.6
		c0.4-0.1,0.9-0.2,1.5-0.2c0.5,0,0.9,0.1,1.3,0.2c0.4,0.1,0.7,0.2,0.9,0.4c0.2,0.1,0.5,0.3,0.6,0.5c0.2,0.2,0.3,0.3,0.3,0.4l-1,0.9
		c-0.1-0.1-0.2-0.2-0.3-0.3c-0.1-0.1-0.3-0.2-0.5-0.3c-0.2-0.1-0.4-0.2-0.6-0.3c-0.2-0.1-0.5-0.1-0.8-0.1c-0.3,0-0.6,0-0.8,0.1
		c-0.2,0.1-0.4,0.2-0.6,0.3s-0.3,0.3-0.3,0.5c-0.1,0.2-0.1,0.3-0.1,0.5c0,0.2,0.1,0.5,0.2,0.6c0.1,0.2,0.3,0.3,0.5,0.5
		c0.2,0.1,0.4,0.2,0.7,0.3c0.3,0.1,0.6,0.2,1,0.3c0.4,0.1,0.7,0.2,1.1,0.4c0.4,0.1,0.7,0.3,1,0.6c0.3,0.2,0.5,0.5,0.7,0.9
		c0.2,0.4,0.2,0.8,0.2,1.3c0,0.4-0.1,0.8-0.3,1.2c-0.2,0.4-0.4,0.7-0.7,0.9c-0.3,0.3-0.7,0.5-1.1,0.6c-0.4,0.1-0.9,0.2-1.4,0.2
		c-0.5,0-0.9-0.1-1.3-0.2c-0.4-0.1-0.7-0.2-1-0.4c-0.3-0.2-0.6-0.4-0.8-0.6c-0.2-0.2-0.4-0.4-0.6-0.6L152.5,78.6z"/>
</g>
</svg>
