<?xml version="1.0" encoding="utf-8"?>
<!-- Generator: Adobe Illustrator 19.0.0, SVG Export Plug-In . SVG Version: 6.00 Build 0)  -->
<svg version="1.1" id="Capa_1" xmlns="http://www.w3.org/2000/svg" xmlns:xlink="http://www.w3.org/1999/xlink" x="0px" y="0px"
	 viewBox="-93 69 13 14" style="enable-background:new -93 69 13 14;" xml:space="preserve">
<metadata><?xpacket begin="﻿" id="W5M0MpCehiHzreSzNTczkc9d"?>
<x:xmpmeta xmlns:x="adobe:ns:meta/" x:xmptk="Adobe XMP Core 5.6-c067 79.157747, 2015/03/30-23:40:42        ">
   <rdf:RDF xmlns:rdf="http://www.w3.org/1999/02/22-rdf-syntax-ns#">
      <rdf:Description rdf:about=""/>
   </rdf:RDF>
</x:xmpmeta>
                                                                                                    
                                                                                                    
                                                                                                    
                                                                                                    
                                                                                                    
                                                                                                    
                                                                                                    
                                                                                                    
                                                                                                    
                                                                                                    
                                                                                                    
                                                                                                    
                                                                                                    
                                                                                                    
                                                                                                    
                                                                                                    
                                                                                                    
                                                                                                    
                                                                                                    
                                                                                                    
                           
<?xpacket end="w"?></metadata>
<style type="text/css">
	.st0{enable-background:new    ;}
</style>
<g class="st0">
	<path d="M-80.1,75.6c0,1.3,0,2.2,0,2.7c-0.1,1.2-0.4,2.1-1,2.7c-0.6,0.6-1.5,1-2.7,1c-0.5,0-1.4,0-2.7,0s-2.2,0-2.7,0
		c-1.2-0.1-2.1-0.4-2.7-1c-0.6-0.6-1-1.5-1-2.7c0-0.5,0-1.4,0-2.7c0-1.3,0-2.2,0-2.7c0.1-1.2,0.4-2.1,1-2.7c0.6-0.6,1.5-1,2.7-1
		c0.5,0,1.4,0,2.7,0s2.2,0,2.7,0c1.2,0.1,2.1,0.4,2.7,1c0.6,0.6,1,1.5,1,2.7C-80.2,73.5-80.1,74.4-80.1,75.6z M-85.9,70.4
		c-0.4,0-0.6,0-0.6,0s-0.3,0-0.6,0s-0.7,0-0.9,0c-0.2,0-0.5,0-0.8,0c-0.3,0-0.6,0-0.9,0.1c-0.2,0-0.4,0.1-0.6,0.2
		c-0.3,0.1-0.5,0.3-0.7,0.5c-0.2,0.2-0.4,0.5-0.5,0.7c-0.1,0.2-0.1,0.4-0.2,0.6s-0.1,0.5-0.1,0.9c0,0.3,0,0.6,0,0.8
		c0,0.2,0,0.5,0,0.9c0,0.4,0,0.6,0,0.6s0,0.3,0,0.6s0,0.7,0,0.9c0,0.2,0,0.5,0,0.8c0,0.3,0,0.6,0.1,0.9s0.1,0.4,0.2,0.6
		c0.1,0.3,0.3,0.5,0.5,0.7c0.2,0.2,0.5,0.4,0.7,0.5c0.2,0.1,0.4,0.1,0.6,0.2c0.2,0,0.5,0.1,0.9,0.1c0.3,0,0.6,0,0.8,0
		c0.2,0,0.5,0,0.9,0s0.6,0,0.6,0s0.3,0,0.6,0c0.4,0,0.7,0,0.9,0c0.2,0,0.5,0,0.8,0s0.6,0,0.9-0.1s0.4-0.1,0.6-0.2
		c0.3-0.1,0.5-0.3,0.7-0.5c0.2-0.2,0.4-0.5,0.5-0.7c0.1-0.2,0.1-0.4,0.2-0.6c0-0.2,0.1-0.5,0.1-0.9c0-0.3,0-0.6,0-0.8
		c0-0.2,0-0.5,0-0.9s0-0.6,0-0.6s0-0.3,0-0.6c0-0.4,0-0.7,0-0.9c0-0.2,0-0.5,0-0.8c0-0.3,0-0.6-0.1-0.9c0-0.2-0.1-0.4-0.2-0.6
		c-0.1-0.3-0.3-0.5-0.5-0.7s-0.5-0.4-0.7-0.5c-0.2-0.1-0.4-0.1-0.6-0.2c-0.2,0-0.5-0.1-0.9-0.1s-0.6,0-0.8,0
		C-85.2,70.4-85.5,70.4-85.9,70.4z M-84.2,73.3c0.6,0.6,1,1.4,1,2.3c0,0.9-0.3,1.7-1,2.3c-0.6,0.6-1.4,1-2.3,1c-0.9,0-1.7-0.3-2.3-1
		c-0.6-0.6-1-1.4-1-2.3c0-0.9,0.3-1.7,1-2.3c0.6-0.6,1.4-1,2.3-1C-85.7,72.3-84.9,72.7-84.2,73.3z M-85.1,77.2
		c0.4-0.4,0.6-0.9,0.6-1.5c0-0.6-0.2-1.1-0.6-1.5c-0.4-0.4-0.9-0.6-1.5-0.6c-0.6,0-1.1,0.2-1.5,0.6c-0.4,0.4-0.6,0.9-0.6,1.5
		c0,0.6,0.2,1.1,0.6,1.5c0.4,0.4,0.9,0.6,1.5,0.6C-86,77.8-85.5,77.6-85.1,77.2z M-82.6,71.7c0.2,0.2,0.2,0.3,0.2,0.5
		s-0.1,0.4-0.2,0.5s-0.3,0.2-0.5,0.2s-0.4-0.1-0.5-0.2s-0.2-0.3-0.2-0.5s0.1-0.4,0.2-0.5s0.3-0.2,0.5-0.2S-82.7,71.5-82.6,71.7z"/>
</g>
</svg>
